<?xml version="1.0" encoding="UTF-8" standalone="no"?>
<!-- Created with Inkscape (http://www.inkscape.org/) -->

<svg
   version="1.1"
   id="svg1"
   width="901.12"
   height="491.51999"
   viewBox="0 0 901.12 491.51999"
   sodipodi:docname="geminisvg.svg"
   inkscape:version="1.4.2 (f4327f4, 2025-05-13)"
   inkscape:export-filename="Gemini_Generated_Image_pv0ozcpv0ozcpv0o.png"
   inkscape:export-xdpi="96"
   inkscape:export-ydpi="96"
   xmlns:inkscape="http://www.inkscape.org/namespaces/inkscape"
   xmlns:sodipodi="http://sodipodi.sourceforge.net/DTD/sodipodi-0.dtd"
   xmlns="http://www.w3.org/2000/svg"
   xmlns:svg="http://www.w3.org/2000/svg">
  <defs
     id="defs1" />
  <sodipodi:namedview
     id="namedview1"
     pagecolor="#ffffff"
     bordercolor="#000000"
     borderopacity="0.25"
     inkscape:showpageshadow="2"
     inkscape:pageopacity="0.0"
     inkscape:pagecheckerboard="0"
     inkscape:deskcolor="#d1d1d1"
     inkscape:zoom="1.6866049"
     inkscape:cx="450.6094"
     inkscape:cy="245.75999"
     inkscape:window-width="1920"
     inkscape:window-height="1111"
     inkscape:window-x="-9"
     inkscape:window-y="-9"
     inkscape:window-maximized="1"
     inkscape:current-layer="g1" />
  <g
     inkscape:groupmode="layer"
     inkscape:label="Image"
     id="g1">
    <path
       style="fill:#154837;fill-opacity:1"
       d="m 396.19226,414.01276 c -0.0978,-0.82532 0.0962,-3.7925 0.38175,-5.84 0.95909,-6.87644 3.49086,-13.614 7.27488,-19.36 1.8539,-2.81512 6.45884,-7.61988 9.83774,-10.26462 5.44338,-4.26065 16.15176,-10.0161 23.17407,-12.4554 6.62225,-2.30033 14.88344,-4.10377 22.88,-4.99477 2.10272,-0.23429 11.26496,-0.34134 26.72,-0.3122 28.94379,0.0546 31.34344,-0.15242 41.28,-3.56073 14.44735,-4.95554 24.17703,-13.96397 29.65986,-27.46118 2.62136,-6.45306 3.67747,-12.02514 3.66773,-19.3511 -0.009,-7.13832 -1.11915,-13.92845 -3.40219,-20.81845 -1.17062,-3.53283 -3.92446,-9.88432 -4.79961,-11.06987 l -0.55486,-0.75168 0.17973,0.8 c 2.18623,9.73074 1.29816,21.80282 -2.3658,32.16 -6.42394,18.15903 -22.79843,29.92431 -45.85389,32.94662 -2.91691,0.38237 -7.09007,0.4944 -18.54736,0.4979 -27.83519,0.009 -37.3458,1.17274 -53.50361,6.54962 -26.08988,8.68198 -43.20603,24.06605 -49.85055,44.80586 -1.72629,5.38833 -2.78945,11.57481 -2.78945,16.23161 v 2.16839 h -8.84982 -8.84981 l 0.2052,-4.56 c 0.48717,-10.82571 2.97427,-20.4234 7.90268,-30.49638 7.41037,-15.14575 19.54651,-27.60051 35.73839,-36.67664 13.77875,-7.72348 30.35817,-12.95753 47.93336,-15.13235 7.49313,-0.92723 12.63291,-1.13464 28.14396,-1.13572 17.21926,-10e-4 21.25408,-0.24147 26.56061,-1.58165 13.07484,-3.30209 21.77986,-10.71566 25.43718,-21.66342 2.80257,-8.38913 2.98242,-17.75225 0.51647,-26.88791 -1.91647,-7.09996 -4.01141,-10.37529 -11.29696,-17.66224 -2.87942,-2.87997 -5.28304,-5.18397 -5.34139,-5.12 -0.0584,0.064 0.11272,1.34031 0.38015,2.83631 0.71313,3.98931 0.71745,14.93815 0.007,18.72 -1.83659,9.78176 -5.31347,16.55038 -11.75295,22.88 -6.29867,6.19123 -13.51511,9.6802 -23.53445,11.37832 -1.66634,0.28242 -6.75875,0.61324 -12.08418,0.78504 -12.49671,0.40314 -21.47596,1.34088 -30.31779,3.16621 -20.3557,4.20227 -37.31257,10.94977 -52.09333,20.72905 -12.11481,8.01543 -23.42748,19.91664 -30.61112,32.20366 -2.34138,4.00474 -5.89965,11.424 -7.16411,14.93772 -3.26596,9.07655 -5.16909,19.70797 -5.16909,28.87804 v 4.40196 H 336.17035 327 l 0.20349,-5.68 c 0.60744,-16.95593 4.29933,-31.25158 11.92237,-46.16548 5.6088,-10.97321 13.30252,-21.32853 22.05978,-29.69124 21.76376,-20.78322 49.27997,-33.50496 83.83506,-38.76 7.57032,-1.15127 13.33396,-1.64453 22.72,-1.94439 9.9941,-0.31929 12.90969,-0.7207 17.27607,-2.3785 6.1909,-2.35052 11.48477,-7.30015 13.73286,-12.83989 1.46623,-3.61309 1.89873,-6.76566 1.68612,-12.29045 -0.15831,-4.11386 -0.83712,-9.37878 -1.26429,-9.80595 -0.21795,-0.21795 -6.49777,1.53533 -9.45543,2.63988 -3.88303,1.45014 -5.82106,2.42166 -14.77533,7.40684 -13.43289,7.47859 -16.72507,8.64956 -34.4,12.23551 -5.28,1.07123 -11.86616,2.5172 -14.63591,3.21327 -33.02419,8.29939 -59.36427,22.70233 -79.93162,43.7072 -6.27051,6.40389 -11.06537,12.39171 -18.29569,22.84765 -0.51138,0.73952 -0.5442,-6.45733 -0.56,-122.82083 L 327.10068,100 l 99.92,0.10617 99.92,0.10618 4,0.67717 c 23.08992,3.909 41.99039,14.21819 55.59347,30.32325 9.83436,11.64317 16.37035,26.97692 18.95954,44.48 2.40807,16.27867 -0.31409,33.14897 -8.01333,49.66169 -3.72262,7.98398 -8.58742,14.76381 -16.04804,22.36538 -2.77841,2.83088 -5.05164,5.22716 -5.05164,5.32506 0,0.0979 1.404,1.30587 3.12,2.68438 13.61231,10.93511 23.635,27.55933 27.75705,46.03947 1.81308,8.12845 2.20789,11.82222 2.22365,20.80401 0.0157,8.9498 -0.22222,11.49834 -1.74765,18.72 -5.72465,27.10154 -24.0181,50.36315 -49.59305,63.06158 -11.20421,5.56309 -22.04172,8.58031 -34.36647,9.5678 -4.80253,0.38479 -127.53679,0.47197 -127.58197,0.0906 z m 129.85796,-18.87825 c 9.54176,-1.5549 15.83017,-3.53143 23.74667,-7.46389 12.41776,-6.16843 22.21463,-14.79462 29.9391,-26.36152 13.71783,-20.54156 15.4081,-45.36931 4.60875,-67.69634 -1.23438,-2.552 -3.30423,-6.224 -4.59967,-8.16 -2.33879,-3.49524 -5.53914,-7.30619 -5.10585,-6.08 2.0739,5.86899 3.5392,11.7344 4.51679,18.08 0.70807,4.59618 0.7949,16.55209 0.15338,21.12 -2.4797,17.65676 -8.59027,30.60509 -19.21429,40.71522 -12.2047,11.61435 -28.15694,18.13327 -47.5544,19.4332 -2.64,0.17693 -14.70568,0.32391 -26.81261,0.32663 -23.07607,0.005 -25.36859,0.11025 -32.22739,1.47682 -10.6942,2.13074 -22.41087,7.70183 -28.57319,13.5861 l -1.98681,1.89715 49.44,-0.0921 c 48.87139,-0.091 49.48864,-0.1 53.66952,-0.7813 z m -176.4215,-99.28175 c 2.09441,-1.672 5.91041,-4.55426 8.48,-6.40502 l 4.67198,-3.36502 v -34.92731 c 0,-19.21003 0.11201,-35.03978 0.24892,-35.17724 0.32312,-0.32441 7.76052,1.82414 12.07108,3.48715 6.78265,2.61674 16.3663,8.0008 27.2,15.28086 10.00066,6.72028 17.71999,12.95467 25.62502,20.69564 l 4.34503,4.25484 6.21497,-1.29047 c 6.50051,-1.34976 13.41498,-3.18892 13.41498,-3.56821 0,-0.27834 -13.99556,-13.52274 -18.72,-17.71526 -12.25175,-10.87237 -29.59159,-22.86991 -43.45483,-30.06666 -8.18237,-4.24768 -19.87001,-8.77051 -29.66517,-11.47972 -5.20072,-1.43844 -12.69854,-3.08357 -14.05361,-3.08357 h -0.6932 l 0.0415,53.2973 c 0.0228,29.31351 0.13686,53.25351 0.25341,53.2 0.11655,-0.0535 1.92552,-1.46531 4.01993,-3.13731 z m 35.97005,-21.47625 c 5.27652,-2.3073 13.06862,-5.32244 19.34193,-7.48432 2.948,-1.01592 5.35292,-1.9354 5.34427,-2.04328 -0.0271,-0.33802 -7.70696,-6.66144 -12.04247,-9.91549 -4.35136,-3.26596 -11.24231,-7.99847 -14.9018,-10.23415 l -2.16,-1.31961 v 11.46568 c 0,10.85159 0.26708,21.16742 0.54803,21.16742 0.0705,0 1.81198,-0.73631 3.87004,-1.63625 z m 88.38193,-30.73166 c 2.376,-1.16287 5.72189,-2.67181 7.43531,-3.3532 1.71342,-0.68139 3.11742,-1.32622 3.12,-1.43296 0.009,-0.36377 -4.84676,-5.87397 -10.4033,-11.80592 -22.48431,-24.00342 -54.18101,-46.46209 -81.45387,-57.71409 -10.66621,-4.40056 -20.99131,-7.79881 -30.2581,-9.9587 -4.53115,-1.05611 -15.32102,-3.04614 -16.52004,-3.04687 -0.51949,-3.2e-4 -0.56,0.6236 -0.56,8.62516 v 8.6255 l 1.2,0.20842 c 16.15999,2.80677 28.2328,6.44294 43.44,13.08356 23.43813,10.23486 50.21383,29.70964 74.557,54.22758 2.63834,2.65729 4.87034,4.79192 4.96,4.74363 0.0897,-0.0483 2.107,-1.03925 4.483,-2.20211 z m 87.1443,-2.0918 c 2.86484,-2.17464 10.65269,-10.06419 12.98029,-13.14978 9.57111,-12.68801 15.21212,-30.06672 14.09724,-43.4305 -0.78685,-9.43164 -3.58072,-20.6879 -6.95324,-28.01398 -7.84288,-17.03696 -24.4526,-30.40629 -44.70859,-35.98638 -7.833,-2.15783 -10.5706,-2.51182 -19.52,-2.52406 -8.55705,-0.0117 -12.88792,0.44914 -20.66705,2.19914 -8.98898,2.02217 -22.13051,7.38364 -30.33324,12.37532 -3.09567,1.88384 -10.27971,7.00173 -10.27971,7.32323 0,0.14149 0.9,0.88802 2,1.65897 1.1,0.77094 4.22142,2.96608 6.9365,4.87807 2.71508,1.912 5.0943,3.47635 5.28717,3.47635 0.19286,0 1.71543,-0.80114 3.38349,-1.78032 3.81263,-2.23808 11.31331,-5.99983 14.42441,-7.23415 6.92414,-2.74712 15.16607,-4.81539 22.00008,-5.5208 5.59468,-0.57749 14.33756,-0.21421 19.11059,0.79407 13.49114,2.84996 26.01719,10.64557 33.25282,20.69498 6.4623,8.97535 10.30063,23.27075 9.14503,34.05956 -1.03529,9.66556 -4.60167,19.31673 -9.86649,26.70026 -2.75687,3.86632 -7.71926,8.84173 -11.66909,11.69974 -1.70266,1.232 -3.10221,2.32567 -3.11013,2.43038 -0.0559,0.74023 2.78829,4.27965 4.50146,5.60172 2.41098,1.86059 7.37302,5.21171 7.74846,5.23294 0.14537,0.008 1.15337,-0.65992 2.24,-1.48476 z m -36.13936,-8.18028 c -1.45299,-2.4963 -6.2476,-9.46147 -9.39841,-13.65317 -11.76732,-15.6547 -25.24223,-29.27812 -42.50851,-42.97698 -31.63405,-25.09809 -59.99778,-40.54391 -91.25802,-49.69568 -10.93173,-3.20038 -19.9285,-5.1457 -29.53639,-6.38648 -2.07702,-0.26823 -4.49141,-0.48769 -5.36531,-0.48769 h -1.58893 l 0.0853,8.37592 0.0853,8.37592 7.2,1.19578 c 8.90998,1.47978 14.88017,2.78379 21.92,4.78777 26.45941,7.53203 50.95695,19.78137 74.4,37.20173 7.86513,5.84453 16.53178,12.87179 21.76744,17.64989 13.05921,11.91794 21.79578,20.85625 29.91853,30.6094 l 3.83406,4.60359 8.48,0.0182 c 4.9206,0.0106 9.08442,0.16378 9.92,0.36494 2.00052,0.48163 2.31701,0.48423 2.04494,0.0168 z m 14.28519,-18.45624 c 2.6018,-1.95445 6.80996,-6.32217 8.37511,-8.69267 1.96763,-2.98009 3.45842,-6.25029 4.33668,-9.51293 0.7551,-2.8051 0.83607,-3.67329 0.85603,-9.17816 0.0249,-6.87854 -0.36202,-9.2497 -2.2646,-13.87669 -1.46152,-3.55436 -2.93422,-5.79483 -5.67942,-8.64031 -4.71535,-4.88759 -11.66481,-8.51773 -19.39393,-10.13068 -7.33459,-1.53062 -17.90191,-0.62722 -26.83652,2.29425 -3.40383,1.113 -11.61966,4.86767 -12.00084,5.48444 -0.11117,0.17986 1.92177,2.0949 4.51762,4.25564 2.59586,2.16074 5.66365,4.7566 6.81731,5.76859 l 2.09757,1.83998 1.81321,-0.59818 c 6.95969,-2.29602 16.79593,-3.24707 21.40998,-2.0701 4.777,1.21854 9.68485,4.65124 11.55026,8.0786 3.90456,7.17396 1.32433,16.91173 -5.73616,21.64825 l -2.03784,1.36708 1.06079,1.40956 c 0.58343,0.77526 2.4074,3.35357 4.05326,5.72957 3.84689,5.55347 4.47565,6.40066 4.74764,6.39692 0.12305,-0.002 1.16428,-0.70962 2.31385,-1.57316 z M 441.0207,128.1809 c 3.92425,-2.93593 6.3441,-4.573 10.4,-7.03575 2.112,-1.28242 3.9,-2.38583 3.97333,-2.45202 0.0733,-0.0662 -9.14267,-0.11752 -20.48,-0.11404 l -20.61333,0.006 3.04,1.34181 c 3.42936,1.51366 15.79519,7.65124 18.72,9.29136 1.056,0.59216 2.064,1.00493 2.24,0.91727 0.176,-0.0877 1.4,-0.9674 2.72,-1.95496 z"
       id="path1" />
  </g>
</svg>
